<svg width="700" height="700" viewBox="0 0 700 700" fill="none" xmlns="http://www.w3.org/2000/svg">
<path d="M258.519 264C270.066 244 298.934 244 310.481 264L371.536 369.75C383.083 389.75 368.649 414.75 345.555 414.75L223.445 414.75C200.351 414.75 185.917 389.75 197.464 369.75L258.519 264Z" stroke="#FF00B8" stroke-width="11"/>
<path d="M389.019 264C400.566 244 429.434 244 440.981 264L502.036 369.75C513.583 389.75 499.149 414.75 476.055 414.75L353.945 414.75C330.851 414.75 316.417 389.75 327.964 369.75L389.019 264Z" stroke="#FF00B8" stroke-width="11"/>
<path d="M585.126 384.25L437.902 129.25C398.834 61.5833 301.166 61.5832 262.098 129.25L114.874 384.25C75.8067 451.917 124.641 536.5 202.776 536.5L497.224 536.5C575.359 536.5 624.193 451.917 585.126 384.25Z" stroke="#FF00B8" stroke-width="23"/>
</svg>
