<svg width="935" height="935" viewBox="0 0 935 935" fill="none" xmlns="http://www.w3.org/2000/svg">
<path d="M559.481 525C547.934 545 519.066 545 507.519 525L446.464 419.25C434.917 399.25 449.351 374.25 472.445 374.25H594.555C617.649 374.25 632.083 399.25 620.536 419.25L559.481 525Z" stroke="#FF00B8" stroke-width="11"/>
<path d="M428.481 525C416.934 545 388.066 545 376.519 525L315.464 419.25C303.917 399.25 318.351 374.25 341.445 374.25H463.555C486.649 374.25 501.083 399.25 489.536 419.25L428.481 525Z" stroke="#FF00B8" stroke-width="11"/>
<path d="M493.481 640C481.934 660 453.066 660 441.519 640L380.464 534.25C368.917 514.25 383.351 489.25 406.445 489.25H528.555C551.649 489.25 566.083 514.25 554.536 534.25L493.481 640Z" stroke="#FF00B8" stroke-width="11"/>
<path d="M376.519 283C388.066 263 416.934 263 428.481 283L489.536 388.75C501.083 408.75 486.649 433.75 463.555 433.75H341.445C318.351 433.75 303.917 408.75 315.464 388.75L376.519 283Z" stroke="#FF00B8" stroke-width="11"/>
<path d="M506.519 283C518.066 263 546.934 263 558.481 283L619.536 388.75C631.083 408.75 616.649 433.75 593.555 433.75H471.445C448.351 433.75 433.917 408.75 445.464 388.75L506.519 283Z" stroke="#FF00B8" stroke-width="11"/>
<path d="M804.384 560.5L555.402 129.25C516.334 61.5834 418.666 61.5832 379.598 129.25L130.616 560.5C91.5488 628.167 140.383 712.75 218.518 712.75L716.482 712.75C794.617 712.75 843.451 628.167 804.384 560.5Z" stroke="#FF00B8" stroke-width="23"/>
</svg>
