<svg width="935" height="935" viewBox="0 0 935 935" fill="none" xmlns="http://www.w3.org/2000/svg">
<path d="M558.481 531C546.934 551 518.066 551 506.519 531L445.464 425.25C433.917 405.25 448.351 380.25 471.445 380.25H593.555C616.649 380.25 631.083 405.25 619.536 425.25L558.481 531Z" stroke="#FF00B8" stroke-width="11"/>
<path d="M427.481 531C415.934 551 387.066 551 375.519 531L314.464 425.25C302.917 405.25 317.351 380.25 340.445 380.25H462.555C485.649 380.25 500.083 405.25 488.536 425.25L427.481 531Z" stroke="#FF00B8" stroke-width="11"/>
<path d="M493.481 645C481.934 665 453.066 665 441.519 645L380.464 539.25C368.917 519.25 383.351 494.25 406.445 494.25H528.555C551.649 494.25 566.083 519.25 554.536 539.25L493.481 645Z" stroke="#FF00B8" stroke-width="11"/>
<path d="M375.519 289C387.066 269 415.934 269 427.481 289L488.536 394.75C500.083 414.75 485.649 439.75 462.555 439.75H340.445C317.351 439.75 302.917 414.75 314.464 394.75L375.519 289Z" stroke="#FF00B8" stroke-width="11"/>
<path d="M505.519 289C517.066 269 545.934 269 557.481 289L618.536 394.75C630.083 414.75 615.649 439.75 592.555 439.75H470.445C447.351 439.75 432.917 414.75 444.464 394.75L505.519 289Z" stroke="#FF00B8" stroke-width="11"/>
<path d="M555.402 129.25C516.334 61.5833 418.666 61.5832 379.598 129.25L130.616 560.5C91.5488 628.167 140.383 712.75 218.518 712.75L716.482 712.75C794.617 712.75 843.451 628.167 804.384 560.5L555.402 129.25Z" stroke="#FF00B8" stroke-width="23"/>
</svg>
